<?xml version="1.0" encoding="utf-8"?>
<!-- Generator: Adobe Illustrator 19.2.1, SVG Export Plug-In . SVG Version: 6.00 Build 0)  -->
<svg version="1.1" xmlns="http://www.w3.org/2000/svg" xmlns:xlink="http://www.w3.org/1999/xlink" x="0px" y="0px"
	 viewBox="0 0 568.1 655.3" style="enable-background:new 0 0 568.1 655.3;" xml:space="preserve">
<style type="text/css">
	.st0{fill:#262626;}
	.st1{clip-path:url(#SVGID_2_);fill:#333333;}
	.st2{fill:none;stroke:#333333;stroke-width:6;stroke-miterlimit:10;}
	.st3{fill:#333333;}
	.st4{fill:none;stroke:#333333;stroke-width:6;stroke-linecap:round;stroke-miterlimit:10;}
	.st5{opacity:0.2;fill:none;stroke:#FFFFFF;stroke-width:4;stroke-miterlimit:10;}
	.st6{fill:none;stroke:#FFFFFF;stroke-width:6;stroke-linecap:round;stroke-linejoin:round;stroke-miterlimit:10;}
	.st7{opacity:0.5;fill:none;stroke:#FFFFFF;stroke-width:2;stroke-miterlimit:10;}
	.st8{fill:none;stroke:#FFFFFF;stroke-width:2;stroke-miterlimit:10;}
	.st9{fill:none;stroke:#FFFFFF;stroke-width:6;stroke-miterlimit:10;}
	.st10{fill:#FFFFFF;}
	.st11{fill:none;stroke:#262626;stroke-miterlimit:10;}
	.st12{fill:none;stroke:#FFFFFF;stroke-width:12;stroke-miterlimit:10;}
	.st13{fill:none;stroke:#FFFFFF;stroke-linecap:round;stroke-linejoin:round;stroke-miterlimit:10;}
	.st14{fill:none;stroke:#FFFFFF;stroke-width:3;stroke-miterlimit:10;}
	.st15{fill:none;stroke:#FFFFFF;stroke-width:1.993;stroke-miterlimit:10;}
	.st16{fill:none;stroke:#FFFFFF;stroke-miterlimit:10;}
	.st17{fill:none;stroke:#262626;stroke-width:12;stroke-miterlimit:10;}
	.st18{fill:#373737;}
	.st19{clip-path:url(#SVGID_4_);fill:#373737;}
	.st20{clip-path:url(#SVGID_6_);fill:#373737;}
</style>
<g id="Layer_1">
</g>
<g id="Layer_3">
</g>
<g id="Layer_2">
</g>
<g id="Layer_4">
	<polygon class="st18" points="568.1,176.4 568.1,491.5 284.3,655.3 283.6,655 394,591.6 388.3,588.3 388.3,588.3 562.1,488 
		562.1,179.9 567.9,176.6 	"/>
	<polygon class="st3" points="566.9,163.3 560.9,166.8 283.4,327.6 281.1,327.6 281.1,329 169.6,393.6 108.6,428.9 108.7,428.9 
		108.7,429 6.6,488.1 0.5,491.6 0.1,491.5 0.1,366.5 6.3,363 173.5,266.4 173.6,266.4 179.6,263 179.6,263 453.5,104.7 459.5,101.2 
		461.2,102.2 	"/>
	<g>
		<polygon class="st18" points="459.5,101.2 453.5,104.6 453.5,104.6 284.1,6.9 9.7,165.3 9.8,165.3 179.6,263 179.6,263 
			173.6,266.4 6.4,170.3 6.1,170.2 6.1,363 0.1,366.5 0.1,163.8 284,0 		"/>
		<polygon class="st18" points="179.6,263 173.6,266.4 173.6,266.4 179.6,263 179.6,263 		"/>
	</g>
	<g>
		<polygon class="st18" points="287.1,339.4 287.1,517.7 281.1,514.2 281.1,342.8 		"/>
	</g>
	<g>
		<polygon class="st3" points="394,591.6 283.6,655 12.6,498.5 18.6,495 120.8,435.8 281.1,527.2 281.1,527.2 287.1,530.7 
			388.2,588.3 388.3,588.3 		"/>
		<polygon class="st3" points="0.1,366.5 0.1,491.5 0,366.6 		"/>
		<polygon class="st3" points="568.1,163.6 567.8,163.8 561.8,167.3 284,327.6 281.1,329.3 169.6,393.6 281.1,329 281.1,327.6 
			283.4,327.6 560.9,166.8 566.9,163.3 461.2,102.2 567.2,163.1 		"/>
	</g>
	<g>
		<defs>
			<path id="SVGID_5_" d="M479.8,371.9c-0.3,27.4-19.9,62.2-43.8,77.7s-42.9,5.9-42.5-21.5s19.9-62.2,43.8-77.7
				C461.1,334.8,480.2,344.5,479.8,371.9z"/>
		</defs>
		<clipPath id="SVGID_2_">
			<use xlink:href="#SVGID_5_"  style="overflow:visible;"/>
		</clipPath>
		<path style="clip-path:url(#SVGID_2_);fill:#373737;" d="M462.3,366.8c-0.3,24.5-17.8,55.7-39.2,69.5c-21.3,13.9-38.4,5.2-38-19.3
			c0.3-24.5,17.8-55.7,39.2-69.5C445.6,333.7,462.6,342.3,462.3,366.8z"/>
	</g>
	<path class="st2" d="M479.8,371.9c-0.3,27.4-19.9,62.2-43.8,77.7s-42.9,5.9-42.5-21.5s19.9-62.2,43.8-77.7
		C461.1,334.8,480.2,344.5,479.8,371.9z"/>
</g>
</svg>
