<?xml version="1.0" encoding="utf-8"?>
<!-- Generator: Adobe Illustrator 19.2.1, SVG Export Plug-In . SVG Version: 6.00 Build 0)  -->
<svg version="1.1" xmlns="http://www.w3.org/2000/svg" xmlns:xlink="http://www.w3.org/1999/xlink" x="0px" y="0px"
	 viewBox="0 0 647.8 655.3" style="enable-background:new 0 0 647.8 655.3;" xml:space="preserve">
<style type="text/css">
	.st0{fill:#262626;}
	.st1{clip-path:url(#SVGID_2_);fill:#333333;}
	.st2{fill:none;stroke:#333333;stroke-width:6;stroke-miterlimit:10;}
	.st3{clip-path:url(#SVGID_4_);fill:#333333;}
	.st4{fill:#333333;}
	.st5{fill:none;stroke:#333333;stroke-width:6;stroke-linecap:round;stroke-miterlimit:10;}
	.st6{opacity:0.2;fill:none;stroke:#FFFFFF;stroke-width:4;stroke-miterlimit:10;}
	.st7{fill:none;stroke:#FFFFFF;stroke-width:6;stroke-linecap:round;stroke-linejoin:round;stroke-miterlimit:10;}
	.st8{opacity:0.5;fill:none;stroke:#FFFFFF;stroke-width:2;stroke-miterlimit:10;}
	.st9{fill:none;stroke:#FFFFFF;stroke-width:2;stroke-miterlimit:10;}
	.st10{fill:none;stroke:#FFFFFF;stroke-width:6;stroke-miterlimit:10;}
	.st11{fill:#FFFFFF;}
	.st12{fill:none;stroke:#262626;stroke-miterlimit:10;}
	.st13{fill:none;stroke:#FFFFFF;stroke-width:12;stroke-miterlimit:10;}
	.st14{fill:none;stroke:#FFFFFF;stroke-linecap:round;stroke-linejoin:round;stroke-miterlimit:10;}
	.st15{fill:none;stroke:#FFFFFF;stroke-width:3;stroke-miterlimit:10;}
	.st16{fill:none;stroke:#FFFFFF;stroke-width:1.993;stroke-miterlimit:10;}
	.st17{fill:none;stroke:#FFFFFF;stroke-miterlimit:10;}
	.st18{fill:none;stroke:#262626;stroke-width:12;stroke-miterlimit:10;}
	.st19{fill:#373737;}
	.st20{clip-path:url(#SVGID_6_);fill:#373737;}
	.st21{clip-path:url(#SVGID_8_);fill:#373737;}
</style>
<g id="Layer_1">
</g>
<g id="Layer_3">
	<rect x="-169.2" y="-184.4" class="st0" width="1024" height="1024"/>
	<g>
		<defs>
			<path id="SVGID_3_" d="M538.5,371.9c-0.3,27.4-19.9,62.2-43.8,77.7c-23.8,15.5-42.9,5.9-42.5-21.5c0.3-27.4,19.9-62.2,43.8-77.7
				C519.8,334.8,538.8,344.5,538.5,371.9z"/>
		</defs>
		<clipPath id="SVGID_2_">
			<use xlink:href="#SVGID_3_"  style="overflow:visible;"/>
		</clipPath>
		<path class="st1" d="M520.9,366.8c-0.3,24.5-17.8,55.7-39.2,69.5s-38.4,5.2-38-19.3c0.3-24.5,17.8-55.7,39.2-69.5
			C504.2,333.7,521.2,342.3,520.9,366.8z"/>
	</g>
	<path class="st2" d="M538.5,371.9c-0.3,27.4-19.9,62.2-43.8,77.7c-23.8,15.5-42.9,5.9-42.5-21.5c0.3-27.4,19.9-62.2,43.8-77.7
		C519.8,334.8,538.8,344.5,538.5,371.9z"/>
</g>
<g id="Layer_2">
	<g>
		<path class="st4" d="M342.8,6.9l278,160.4V488l-278,160.4L64.8,488V167.3L342.8,6.9 M342.8,0l-284,163.8v327.6l284,163.8
			l284-163.8V163.8L342.8,0L342.8,0z"/>
	</g>
	<line class="st5" x1="64.5" y1="166.6" x2="337.8" y2="323.6"/>
	<line class="st2" x1="342.8" y1="327.6" x2="342.8" y2="648.1"/>
	<g>
		<polygon class="st11" points="341.8,655.3 58.8,491.5 58.8,366.6 518.1,101.2 626.8,163.6 167.2,428.9 452.6,591.6 		"/>
	</g>
	<line class="st18" x1="3" y1="531.2" x2="644.8" y2="159"/>
</g>
<g id="Layer_4">
</g>
</svg>
